<svg xmlns="http://www.w3.org/2000/svg" width="243.769" height="66.452" viewBox="896.740 1587.667 243.769 66.452"><path d="M903.544 1588.874 C904.837 1589.358 906.345 1590.349 907.440 1591.201 C907.784 1591.468 907.432 1591.673 907.662 1591.870 C908.112 1592.256 908.668 1592.356 909.100 1592.761 C909.242 1592.897 908.781 1593.272 908.936 1593.404 C909.788 1594.120 910.764 1594.473 911.686 1595.085 C916.229 1598.102 920.860 1600.751 925.611 1603.512 C927.178 1604.422 928.899 1605.879 930.657 1606.552 C930.862 1606.630 930.968 1606.146 931.023 1606.130 C931.881 1605.895 931.241 1606.652 931.559 1606.963 C932.820 1608.194 934.463 1609.102 935.989 1609.689 C936.638 1609.938 936.465 1608.774 936.834 1609.569 C936.860 1609.624 936.469 1609.994 936.612 1610.129 C936.937 1610.437 937.702 1610.733 937.978 1610.923 C938.510 1611.291 938.607 1611.336 939.142 1611.622 C939.872 1612.017 940.630 1612.698 941.473 1613.008 C941.654 1613.073 941.672 1612.494 941.982 1612.556 C942.292 1612.618 942.983 1613.028 943.166 1613.262 C943.349 1613.497 943.057 1613.807 943.056 1613.912 C943.039 1614.798 944.370 1614.254 944.488 1614.285 C946.633 1614.883 948.000 1616.302 949.813 1617.246 C951.190 1617.962 952.757 1618.547 954.053 1619.256 C955.597 1620.102 956.788 1621.042 958.326 1621.790 C958.488 1621.870 958.584 1621.229 958.783 1621.324 C960.891 1622.345 962.921 1623.480 964.795 1624.925 C964.983 1625.071 964.467 1625.408 964.640 1625.582 C965.702 1626.636 967.216 1628.625 969.054 1626.941 C969.870 1627.470 970.869 1628.098 971.418 1628.918 C971.773 1629.446 971.020 1629.715 971.744 1629.810 C971.907 1629.833 971.967 1629.284 972.193 1629.352 C973.146 1629.637 974.016 1630.280 974.996 1630.492 C975.195 1630.534 975.361 1630.101 975.449 1630.053 C976.111 1629.708 976.317 1630.798 976.434 1631.105 C976.445 1631.134 976.455 1631.156 976.464 1631.169 C977.313 1632.288 978.254 1632.495 979.308 1633.023 C979.552 1633.145 979.531 1632.448 979.775 1632.546 C981.036 1633.055 982.297 1633.694 983.407 1634.479 C983.654 1634.655 983.193 1635.028 983.300 1635.137 C983.780 1635.613 984.299 1634.753 984.769 1635.185 C984.869 1635.275 984.628 1635.663 984.630 1635.717 C984.665 1636.576 985.383 1635.681 985.477 1635.693 C986.690 1635.834 986.965 1637.180 988.094 1637.439 C988.230 1637.469 988.145 1636.826 988.512 1636.941 C990.956 1637.703 993.445 1638.717 995.738 1639.888 C996.094 1640.069 995.701 1640.398 995.710 1640.456 C995.861 1641.364 996.431 1640.379 996.565 1640.375 C997.622 1640.374 998.293 1641.523 999.302 1640.430 C1003.336 1641.990 1007.635 1642.135 1011.667 1643.940 C1011.718 1643.961 1011.540 1644.485 1011.644 1644.526 C1012.897 1645.021 1012.773 1644.146 1013.763 1643.236 C1014.009 1643.008 1014.502 1644.331 1014.551 1644.429 C1014.721 1644.791 1014.401 1645.567 1014.464 1645.641 C1014.996 1646.224 1015.223 1643.553 1016.007 1643.643 C1016.031 1643.650 1015.872 1644.128 1015.932 1644.184 C1016.121 1644.361 1016.347 1644.189 1016.531 1644.379 C1016.949 1644.819 1016.986 1646.133 1017.775 1645.448 C1017.875 1645.359 1017.884 1643.834 1018.581 1643.970 C1018.860 1644.027 1020.106 1644.104 1020.448 1644.226 C1020.789 1644.350 1020.515 1644.821 1020.538 1644.844 C1021.438 1645.557 1021.061 1645.799 1021.479 1646.787 C1021.903 1647.771 1021.908 1645.488 1022.116 1645.246 C1022.325 1645.004 1022.991 1645.575 1023.154 1645.769 C1023.317 1645.963 1023.087 1646.263 1023.235 1646.376 C1024.222 1647.109 1023.732 1645.266 1024.079 1644.920 C1024.889 1644.096 1025.436 1645.804 1026.157 1645.986 C1026.351 1646.035 1026.201 1645.647 1026.375 1645.615 C1027.062 1645.491 1027.470 1646.025 1028.254 1645.546 C1028.384 1645.468 1029.009 1644.454 1029.417 1645.197 C1029.476 1645.304 1029.313 1645.726 1029.607 1645.819 C1030.044 1645.958 1030.836 1646.039 1031.304 1645.887 C1031.648 1645.776 1031.235 1645.091 1031.676 1645.296 C1031.871 1645.388 1031.522 1645.802 1031.891 1645.940 C1032.258 1646.078 1033.187 1646.029 1033.540 1646.000 C1033.892 1645.971 1033.677 1645.453 1033.704 1645.416 C1033.867 1645.207 1034.526 1644.921 1034.586 1644.919 C1037.563 1644.703 1040.408 1645.339 1043.286 1644.681 C1043.511 1644.630 1043.289 1644.099 1043.323 1644.085 C1044.070 1643.754 1043.646 1645.297 1044.260 1645.714 C1044.032 1644.608 1044.381 1644.768 1044.914 1644.569 C1045.170 1644.471 1044.964 1644.060 1044.982 1644.012 C1045.278 1643.301 1045.672 1644.107 1045.769 1644.270 C1046.124 1644.868 1046.292 1644.073 1046.534 1644.471 C1046.777 1644.865 1046.465 1645.555 1046.995 1645.463 C1047.080 1645.042 1046.525 1644.063 1046.896 1643.831 C1048.289 1642.964 1051.211 1643.258 1052.431 1643.082 C1053.644 1642.913 1054.012 1642.751 1054.739 1642.734 C1056.053 1642.698 1055.415 1642.044 1056.100 1641.510 C1056.785 1640.972 1056.877 1642.930 1057.089 1643.303 C1057.300 1643.676 1057.318 1643.233 1057.511 1643.418 C1057.705 1643.604 1057.475 1643.952 1057.821 1643.952 C1058.169 1643.952 1058.868 1643.008 1058.868 1642.559 C1058.870 1641.610 1058.229 1640.789 1059.154 1640.886 C1059.208 1640.893 1059.185 1641.423 1059.384 1641.422 C1060.959 1641.392 1062.491 1640.962 1064.056 1640.823 C1064.271 1640.805 1064.263 1641.398 1064.391 1641.393 C1065.724 1641.340 1064.996 1640.578 1065.322 1639.359 C1065.618 1640.738 1066.260 1641.432 1067.192 1641.118 C1067.751 1640.929 1067.453 1640.384 1067.665 1639.851 C1067.728 1639.691 1068.260 1639.947 1068.233 1639.651 C1068.143 1638.681 1067.422 1637.824 1068.493 1637.878 C1068.541 1637.881 1068.590 1638.413 1068.742 1638.390 C1069.726 1638.241 1069.487 1637.279 1070.416 1636.790 C1071.144 1636.406 1072.718 1636.415 1073.620 1636.136 C1074.216 1637.596 1074.903 1636.910 1074.796 1635.769 C1075.373 1635.566 1075.947 1635.241 1076.544 1635.134 C1076.750 1635.096 1076.819 1635.567 1076.863 1635.601 C1077.544 1636.140 1077.343 1635.067 1077.444 1634.974 C1078.562 1634.008 1079.966 1634.214 1080.826 1632.899 C1080.856 1632.852 1080.427 1631.842 1081.114 1632.389 C1081.160 1632.427 1080.987 1633.076 1081.575 1632.817 C1082.159 1632.560 1083.512 1632.509 1084.050 1631.635 C1084.182 1631.424 1084.224 1630.386 1084.942 1630.779 C1085.039 1630.833 1085.137 1631.138 1085.296 1631.249 C1085.808 1631.601 1085.391 1630.564 1086.135 1631.223 C1086.878 1631.882 1087.824 1632.152 1088.281 1631.128 C1088.297 1631.097 1088.034 1630.233 1088.284 1630.100 C1088.684 1629.887 1089.330 1629.709 1089.731 1629.455 C1089.923 1629.333 1089.513 1628.946 1089.541 1628.916 C1090.672 1627.856 1091.840 1627.684 1093.317 1626.950 C1093.590 1626.816 1093.882 1625.721 1094.691 1625.874 C1095.582 1626.037 1096.572 1628.613 1097.427 1627.229 C1097.779 1626.666 1096.389 1623.488 1098.284 1624.270 C1099.682 1622.689 1101.742 1622.217 1102.955 1620.410 C1103.010 1620.329 1102.631 1619.413 1102.805 1619.284 C1103.065 1619.094 1103.486 1619.318 1103.681 1619.191 C1104.481 1618.683 1104.904 1617.854 1105.599 1617.278 C1105.622 1617.259 1105.646 1617.240 1105.670 1617.221 C1105.950 1617.001 1106.161 1617.426 1106.495 1617.164 C1106.829 1616.902 1106.640 1616.264 1107.263 1616.101 C1107.734 1615.980 1108.876 1616.614 1109.401 1616.340 C1108.612 1615.416 1108.924 1615.173 1109.237 1614.467 C1109.297 1614.331 1108.908 1614.110 1108.922 1614.030 C1108.972 1613.694 1109.384 1613.797 1109.411 1613.456 C1109.418 1613.373 1109.145 1613.061 1109.135 1612.976 C1109.042 1612.242 1110.176 1612.484 1110.372 1612.528 C1111.120 1612.689 1110.921 1612.145 1111.342 1612.097 C1111.762 1612.049 1111.576 1612.620 1111.977 1612.462 C1112.807 1612.133 1113.569 1611.368 1114.219 1610.817 C1114.477 1610.595 1113.936 1610.335 1113.965 1610.293 C1114.398 1609.722 1115.320 1609.691 1114.880 1608.607 C1117.137 1610.419 1115.014 1608.119 1116.145 1607.880 C1116.235 1607.862 1117.205 1608.804 1117.109 1609.154 C1117.013 1609.504 1116.388 1609.494 1116.277 1610.005 C1116.251 1610.125 1116.661 1611.451 1116.654 1611.560 C1116.593 1612.413 1115.191 1610.962 1115.093 1610.900 C1114.026 1610.250 1114.406 1611.732 1114.331 1611.925 C1113.987 1612.806 1113.264 1613.068 1112.941 1613.766 C1112.728 1614.220 1113.570 1615.239 1113.272 1615.448 C1112.284 1616.146 1110.748 1615.046 1110.959 1616.993 C1111.004 1617.409 1112.142 1618.328 1110.737 1618.057 C1110.649 1618.039 1109.477 1617.691 1109.633 1618.430 C1109.653 1618.523 1109.933 1618.837 1109.910 1618.905 C1109.751 1619.351 1109.322 1619.283 1109.090 1619.703 C1108.934 1619.987 1108.770 1620.325 1108.532 1620.587 C1108.413 1620.717 1108.276 1620.829 1108.116 1620.909 C1107.817 1621.058 1106.991 1620.737 1106.751 1620.692 C1106.064 1620.555 1106.303 1621.543 1105.666 1621.206 C1105.027 1620.865 1104.761 1619.752 1103.952 1619.867 C1104.637 1620.719 1105.314 1621.616 1105.988 1622.484 C1104.774 1623.455 1103.356 1624.147 1102.157 1625.138 C1102.009 1625.262 1102.526 1625.605 1102.375 1625.751 C1101.737 1626.362 1100.874 1626.491 1100.241 1627.167 C1099.754 1627.692 1099.492 1628.651 1098.979 1629.209 C1097.886 1628.453 1097.241 1629.426 1096.517 1629.780 C1096.264 1629.905 1096.092 1629.618 1095.867 1629.639 C1095.026 1629.720 1095.932 1630.442 1095.859 1630.701 C1095.536 1631.809 1094.093 1629.765 1093.273 1630.371 C1093.231 1630.402 1093.390 1631.884 1093.355 1632.005 C1093.149 1632.777 1093.024 1631.666 1092.662 1631.778 C1092.000 1631.983 1091.441 1631.956 1090.978 1632.696 C1090.845 1632.913 1090.802 1633.910 1090.091 1633.585 C1089.997 1633.543 1089.800 1633.147 1089.746 1633.149 C1088.800 1633.210 1089.480 1634.414 1089.291 1635.067 C1089.100 1635.720 1087.966 1635.265 1087.699 1635.098 C1087.001 1634.674 1087.816 1634.683 1087.801 1634.611 C1087.610 1633.762 1087.207 1634.156 1086.810 1634.297 C1086.095 1633.142 1085.634 1633.492 1086.402 1634.448 C1086.487 1634.552 1086.708 1634.284 1086.810 1634.297 C1087.144 1635.637 1086.652 1636.105 1085.438 1635.346 C1084.870 1634.990 1084.823 1634.245 1084.061 1634.933 C1083.713 1635.243 1084.304 1635.989 1084.065 1636.402 C1083.513 1637.347 1082.048 1637.111 1081.260 1637.649 C1080.972 1637.846 1081.499 1638.158 1081.309 1638.308 C1080.804 1638.708 1080.139 1638.601 1079.653 1639.046 C1079.609 1639.087 1079.963 1639.513 1079.788 1639.602 C1078.461 1640.290 1077.134 1640.507 1075.701 1641.106 C1075.009 1641.397 1073.880 1642.179 1073.130 1642.411 C1071.832 1642.819 1070.012 1642.668 1068.997 1643.229 C1068.332 1643.593 1068.664 1644.043 1068.479 1644.495 C1068.119 1645.371 1066.662 1644.522 1066.464 1644.380 C1066.458 1644.375 1067.029 1644.052 1066.616 1643.900 C1066.246 1643.419 1066.470 1644.375 1066.464 1644.380 C1066.331 1644.292 1065.071 1644.572 1064.857 1644.745 C1064.741 1644.840 1064.968 1645.301 1064.904 1645.342 C1063.388 1646.294 1061.745 1646.907 1059.981 1647.132 C1059.949 1647.130 1059.847 1646.569 1059.773 1646.572 C1058.729 1646.588 1058.275 1647.419 1057.554 1648.021 C1056.834 1648.621 1056.143 1648.639 1055.444 1647.798 C1054.854 1648.058 1053.876 1647.829 1053.315 1647.679 C1052.755 1647.528 1052.905 1648.625 1052.864 1648.656 C1051.593 1649.625 1050.649 1649.159 1049.170 1649.315 C1048.465 1649.388 1047.105 1649.767 1046.362 1649.996 C1045.776 1650.181 1045.378 1649.974 1044.847 1650.213 C1044.775 1650.245 1044.916 1650.723 1044.895 1650.745 C1044.351 1651.411 1044.493 1650.178 1044.338 1649.982 C1043.775 1649.266 1043.445 1648.889 1042.703 1649.347 C1042.533 1649.452 1042.196 1651.234 1041.868 1651.370 C1041.444 1651.545 1041.544 1650.910 1041.104 1651.107 C1041.066 1651.123 1041.113 1651.504 1040.828 1651.515 C1039.507 1651.573 1038.059 1651.469 1036.698 1651.595 C1036.512 1651.611 1036.790 1652.202 1036.521 1652.234 C1035.255 1652.387 1033.855 1652.430 1032.609 1652.184 C1032.302 1652.121 1032.480 1651.690 1032.411 1651.566 C1031.986 1650.814 1031.443 1651.937 1031.347 1651.960 C1029.086 1652.537 1027.359 1651.524 1025.049 1651.935 C1024.926 1651.960 1023.909 1653.115 1023.519 1652.075 C1023.492 1652.006 1023.116 1650.944 1022.706 1651.638 C1022.680 1651.681 1022.919 1652.232 1022.458 1652.154 C1021.998 1652.075 1021.224 1652.390 1020.628 1651.757 C1020.437 1651.557 1020.042 1650.486 1019.381 1651.267 C1019.342 1651.323 1018.253 1653.119 1018.033 1651.797 C1017.997 1651.579 1018.177 1650.220 1017.401 1650.853 C1017.252 1650.976 1017.471 1651.304 1017.092 1651.460 C1016.510 1651.699 1015.820 1651.258 1015.073 1651.788 C1014.944 1651.882 1014.327 1652.748 1014.005 1651.997 C1013.955 1651.879 1014.131 1651.440 1013.924 1651.363 C1012.943 1650.994 1011.841 1651.153 1010.864 1650.686 C1010.518 1650.521 1010.814 1649.818 1010.470 1649.564 C1010.125 1649.311 1009.406 1649.002 1008.960 1649.270 C1008.512 1649.537 1008.745 1650.773 1008.136 1650.765 C1005.485 1650.724 1003.070 1649.520 1000.572 1648.818 C1000.200 1648.713 1000.412 1649.199 999.856 1649.071 C997.806 1648.615 994.175 1648.005 992.709 1646.596 C991.539 1645.474 993.443 1645.501 992.480 1644.890 C992.019 1644.597 991.045 1645.720 990.907 1645.720 C989.562 1645.737 988.932 1644.875 987.800 1644.666 C987.566 1644.622 987.594 1645.224 987.396 1645.180 C986.716 1645.037 986.126 1644.552 985.496 1644.360 C985.213 1644.275 985.112 1644.691 984.871 1644.563 C984.293 1644.260 983.824 1643.883 983.388 1643.278 C983.349 1643.223 983.904 1642.878 983.470 1642.681 C982.767 1642.363 982.036 1641.634 981.065 1641.656 C980.777 1641.664 980.379 1642.550 980.128 1641.709 C980.075 1641.532 980.685 1640.529 979.676 1641.182 C979.510 1641.293 977.931 1642.071 977.799 1641.044 C977.764 1640.774 977.835 1639.755 977.486 1639.756 C977.437 1639.760 977.371 1640.305 977.111 1640.238 C976.202 1639.997 975.355 1639.523 974.430 1639.242 C974.182 1639.167 974.280 1639.820 973.917 1639.692 C973.407 1639.513 972.868 1639.235 972.354 1638.921 C971.889 1638.634 971.444 1638.317 971.060 1638.023 C970.770 1637.801 971.197 1637.520 971.197 1637.465 C971.190 1636.569 970.475 1637.400 970.323 1637.391 C969.381 1637.319 969.027 1636.569 968.256 1636.316 C968.044 1636.245 967.948 1636.769 967.888 1636.789 C967.278 1636.971 968.002 1636.318 967.793 1636.095 C967.209 1635.468 966.391 1635.088 965.636 1634.767 C965.359 1634.650 965.385 1635.329 965.139 1635.218 C963.678 1634.570 962.234 1633.753 961.005 1632.744 C960.774 1632.553 961.148 1632.236 961.142 1632.115 C961.105 1631.277 960.099 1631.869 959.930 1631.887 C959.158 1631.970 959.122 1631.498 958.582 1631.301 C955.941 1630.343 953.016 1628.516 950.762 1627.154 C947.823 1625.381 945.667 1623.768 942.719 1622.356 C942.532 1622.266 942.438 1622.898 942.273 1622.827 C940.157 1621.887 938.250 1620.625 936.117 1619.709 C935.943 1619.632 935.920 1620.267 935.631 1620.162 C935.036 1619.950 934.348 1619.556 933.872 1619.101 C933.640 1618.880 934.234 1618.635 933.995 1618.422 C933.440 1617.924 932.772 1617.529 932.071 1617.267 C931.772 1617.156 931.924 1617.897 931.556 1617.713 C929.049 1616.469 926.566 1615.287 924.411 1613.306 C924.263 1613.170 924.664 1612.035 924.193 1612.047 C924.012 1612.326 923.834 1612.671 923.658 1612.978 C919.960 1611.262 916.577 1609.030 912.986 1607.084 C912.834 1607.002 912.806 1607.699 912.511 1607.543 C910.805 1606.642 909.063 1605.930 907.603 1604.460 C907.458 1604.315 908.061 1603.377 907.472 1603.259 C907.367 1603.239 906.528 1602.968 906.217 1603.078 C906.173 1603.096 906.074 1603.629 905.819 1603.512 C904.340 1602.829 902.882 1601.935 901.588 1600.902 C901.380 1600.734 901.883 1600.374 901.737 1600.251 C900.698 1599.378 899.226 1599.083 898.335 1598.053 C897.740 1597.362 898.460 1596.661 898.495 1595.620 C898.500 1595.473 898.045 1595.212 898.273 1594.715 C898.847 1593.465 899.769 1592.249 900.354 1590.902 C900.481 1590.613 899.700 1590.589 900.422 1590.105 C900.471 1590.074 901.040 1590.085 901.271 1589.914 C901.431 1589.796 901.549 1589.231 901.813 1589.110 C902.077 1588.990 902.035 1589.494 902.421 1589.392 C902.809 1589.287 902.986 1588.667 903.544 1588.874 M1050.806 1646.986 C1050.242 1646.552 1050.525 1648.476 1050.951 1647.923 C1050.971 1647.894 1050.835 1647.007 1050.806 1646.986 M1102.445 1622.985 C1101.427 1622.699 1101.873 1623.951 1102.629 1624.199 C1103.387 1624.443 1102.756 1623.069 1102.445 1622.985 M1106.947 1618.370 C1106.796 1618.365 1106.710 1618.411 1106.672 1618.489 C1106.488 1618.867 1107.420 1619.986 1107.792 1619.753 C1107.847 1619.719 1107.889 1619.654 1107.911 1619.551 C1107.924 1619.498 1107.004 1618.372 1106.947 1618.370 M900.470 1596.350 C900.477 1596.324 900.154 1596.127 900.134 1596.145 C899.670 1596.600 900.316 1596.993 900.470 1596.350 M1111.191 1613.698 C1110.777 1613.566 1110.583 1614.313 1111.098 1614.477 C1111.512 1614.608 1111.706 1613.861 1111.191 1613.698 M1026.155 1646.935 C1026.148 1646.906 1025.878 1646.874 1025.879 1647.037 C1025.884 1647.565 1026.267 1647.426 1026.155 1646.935 M1119.152 1606.599 C1117.904 1607.567 1115.678 1606.496 1117.133 1605.550 C1117.396 1605.379 1117.113 1606.538 1117.546 1606.429 C1118.335 1606.229 1117.746 1604.840 1118.807 1604.924 C1119.000 1604.940 1119.226 1606.548 1119.152 1606.603 C1119.152 1606.602 1119.152 1606.600 1119.152 1606.599 M1050.109 1644.741 C1050.095 1644.717 1049.723 1644.761 1049.719 1644.788 C1049.629 1645.432 1050.384 1645.343 1050.109 1644.741 M1010.605 1644.312 C1010.593 1644.256 1009.752 1644.065 1009.716 1644.110 C1009.100 1645.031 1010.818 1645.422 1010.605 1644.312 M1073.650 1636.169 C1073.779 1635.439 1074.187 1635.184 1074.794 1635.769 C1074.410 1635.892 1074.036 1636.046 1073.650 1636.169" fill="#ba9a9a" fill-rule="nonzero" opacity="1.0"/><path d="M1100.438 1610.723 C1100.793 1610.789 1101.137 1610.492 1101.365 1610.160 C1101.437 1610.057 1101.286 1609.743 1101.331 1609.657 C1101.419 1609.489 1101.589 1609.613 1101.668 1609.421 C1101.694 1609.356 1101.478 1608.851 1101.509 1608.795 C1101.678 1608.489 1101.948 1608.550 1102.157 1608.363 C1103.189 1607.441 1104.310 1606.875 1105.453 1606.257 C1105.830 1606.053 1106.170 1605.428 1106.649 1605.505 C1106.705 1605.514 1106.820 1605.981 1106.841 1606.015 C1107.166 1606.547 1106.829 1605.639 1106.885 1605.487 C1107.107 1604.886 1107.510 1604.713 1107.926 1604.777 C1108.103 1604.806 1108.234 1605.762 1108.228 1605.204 C1108.228 1605.166 1108.037 1604.693 1108.063 1604.628 C1108.122 1604.481 1108.330 1604.511 1108.392 1604.450 C1108.510 1604.329 1108.535 1604.326 1108.668 1604.279 C1108.849 1604.209 1108.992 1603.899 1109.224 1603.948 C1109.274 1603.959 1109.374 1604.474 1109.468 1604.538 C1109.561 1604.602 1109.726 1604.504 1109.750 1604.368 C1109.773 1604.231 1109.625 1603.848 1109.607 1603.755 C1109.458 1602.971 1109.992 1603.955 1110.026 1603.973 C1110.648 1604.263 1110.875 1603.536 1111.329 1603.396 C1111.674 1603.291 1112.104 1603.373 1112.423 1603.243 C1112.802 1603.087 1113.049 1602.714 1113.442 1602.642 C1113.484 1602.633 1113.620 1603.233 1113.671 1603.224 C1114.211 1603.130 1114.707 1602.905 1115.100 1602.348 C1115.140 1602.292 1114.912 1601.799 1114.942 1601.712 C1115.126 1601.190 1115.311 1600.019 1116.199 1602.197 C1116.387 1602.042 1116.619 1601.871 1116.670 1601.360 C1116.703 1601.031 1116.408 1600.509 1116.635 1600.700 C1116.686 1600.742 1116.794 1601.246 1116.859 1601.273 C1117.132 1601.385 1117.319 1601.151 1117.613 1601.337 C1117.673 1601.376 1117.798 1601.819 1117.835 1601.894 C1118.140 1602.502 1117.981 1601.390 1117.995 1601.301 C1118.102 1600.637 1118.383 1600.797 1118.646 1600.700 C1118.706 1600.677 1118.818 1601.290 1118.883 1601.289 C1119.219 1601.277 1119.524 1601.125 1119.745 1600.769 C1119.794 1600.688 1119.575 1600.205 1119.590 1600.141 C1119.659 1599.863 1119.988 1600.803 1120.060 1600.555 C1120.075 1600.504 1119.925 1600.079 1119.915 1600.030 C1119.765 1599.262 1120.165 1600.291 1120.193 1600.308 C1120.559 1600.541 1120.387 1599.391 1120.693 1599.465 C1120.730 1599.475 1120.831 1600.042 1120.925 1600.036 C1121.043 1600.031 1121.160 1600.014 1121.274 1599.986 L1118.457 1598.873 C1118.675 1599.322 1119.078 1599.682 1119.638 1599.923 C1119.745 1599.969 1120.085 1599.700 1120.134 1599.679 C1120.900 1599.356 1119.968 1599.955 1119.946 1600.001 C1119.803 1600.358 1120.721 1600.096 1119.655 1600.886 C1120.552 1601.544 1120.406 1602.787 1121.928 1603.082 C1121.947 1603.086 1122.409 1602.798 1122.443 1602.808 C1122.861 1602.925 1122.095 1603.291 1121.295 1603.977 C1121.094 1604.150 1122.258 1603.670 1122.344 1603.637 C1122.663 1603.514 1123.343 1603.070 1123.408 1603.052 C1123.923 1602.921 1121.580 1604.221 1121.672 1604.385 C1121.678 1604.387 1122.096 1604.123 1122.146 1604.113 C1122.304 1604.079 1122.157 1604.218 1122.329 1604.176 C1122.725 1604.078 1123.877 1603.471 1123.300 1603.990 C1123.225 1604.057 1121.886 1604.777 1122.031 1604.888 C1122.090 1604.931 1122.213 1605.202 1122.340 1605.225 C1122.466 1605.249 1122.865 1604.958 1122.886 1604.953 C1123.559 1604.828 1123.751 1604.622 1124.641 1604.247 C1125.527 1603.874 1123.529 1604.969 1123.330 1605.134 C1123.132 1605.299 1123.678 1605.178 1123.859 1605.121 C1124.041 1605.065 1124.287 1604.868 1124.396 1604.847 C1125.111 1604.715 1123.463 1605.495 1123.187 1605.741 C1122.532 1606.323 1124.073 1605.615 1124.300 1605.680 C1124.362 1605.698 1124.009 1605.855 1123.997 1605.908 C1123.957 1606.116 1124.463 1605.940 1124.133 1606.338 C1124.079 1606.403 1123.268 1607.032 1123.964 1606.748 C1124.064 1606.707 1124.411 1606.466 1124.527 1606.479 C1124.701 1606.498 1124.872 1606.614 1124.803 1606.779 C1124.753 1606.901 1124.103 1607.161 1124.341 1607.144 C1124.447 1607.136 1124.759 1606.863 1124.929 1606.865 C1125.099 1606.867 1125.190 1607.064 1125.218 1607.143 C1125.247 1607.222 1124.766 1607.442 1124.739 1607.465 C1124.582 1607.600 1124.439 1607.863 1124.446 1607.875 C1124.738 1608.521 1125.830 1608.650 1125.913 1609.392 C1125.920 1609.450 1125.420 1609.692 1125.416 1609.704 C1125.304 1609.979 1126.517 1609.126 1127.010 1608.995 C1126.021 1609.533 1126.236 1609.499 1126.192 1609.673 C1126.171 1609.757 1125.774 1609.942 1125.738 1609.969 C1125.208 1610.376 1125.984 1610.011 1126.145 1609.940 C1126.735 1609.676 1126.106 1610.109 1126.501 1609.934 C1126.894 1609.760 1127.397 1609.364 1127.451 1609.477 C1127.118 1609.706 1126.155 1610.144 1126.053 1610.310 C1125.667 1610.939 1126.715 1611.112 1126.931 1611.320 C1127.147 1611.527 1127.128 1611.644 1127.337 1611.718 C1127.715 1611.851 1126.980 1612.140 1126.761 1612.479 C1126.542 1612.818 1128.171 1611.792 1128.544 1611.612 C1128.917 1611.431 1128.561 1611.666 1128.775 1611.583 C1128.988 1611.500 1129.198 1611.299 1129.310 1611.324 C1129.423 1611.350 1128.887 1611.896 1128.524 1612.133 C1127.756 1612.634 1126.872 1613.025 1127.267 1613.036 C1127.290 1613.037 1127.711 1612.755 1127.778 1612.769 C1128.293 1612.888 1128.497 1613.200 1128.973 1613.342 C1129.039 1613.361 1129.507 1613.046 1129.551 1613.053 C1130.011 1613.136 1129.133 1613.510 1128.297 1614.171 C1129.499 1613.449 1130.290 1613.105 1130.409 1613.297 C1130.480 1613.413 1129.936 1613.694 1129.603 1613.984 C1129.503 1614.071 1129.917 1613.947 1129.674 1614.104 C1128.883 1614.618 1127.921 1615.058 1128.401 1615.054 C1128.424 1615.053 1128.856 1614.771 1128.901 1614.787 C1129.191 1614.885 1128.348 1615.394 1128.365 1615.667 C1128.379 1615.882 1129.072 1615.886 1129.265 1616.030 C1130.635 1615.249 1130.423 1615.608 1129.519 1616.217 C1129.628 1616.320 1129.651 1616.484 1129.850 1616.531 C1129.918 1616.547 1130.300 1616.295 1130.345 1616.276 C1131.064 1615.975 1130.174 1616.550 1130.153 1616.597 C1129.968 1617.087 1130.799 1616.930 1130.275 1617.593 C1130.256 1617.617 1129.312 1618.172 1130.050 1617.853 C1130.101 1617.831 1130.482 1617.493 1130.590 1617.605 C1130.697 1617.717 1131.348 1617.674 1131.009 1618.106 C1130.927 1618.210 1130.217 1618.759 1130.872 1618.506 C1130.960 1618.472 1131.226 1618.304 1131.388 1618.235 C1131.904 1618.016 1130.958 1618.592 1131.813 1618.194 C1132.669 1617.796 1133.358 1617.584 1132.897 1618.087 C1132.884 1618.102 1132.145 1618.578 1132.190 1618.628 C1132.262 1618.709 1132.495 1618.750 1132.544 1618.848 C1132.567 1618.896 1132.077 1619.135 1132.073 1619.147 C1131.982 1619.607 1132.529 1619.588 1132.900 1619.815 C1132.969 1619.856 1132.421 1620.396 1132.998 1620.224 C1133.631 1620.037 1135.884 1618.587 1135.497 1619.197 C1135.343 1619.443 1132.475 1621.265 1134.127 1620.614 C1133.984 1621.245 1134.985 1621.188 1134.680 1621.912 C1134.667 1621.945 1133.876 1622.470 1133.912 1622.508 C1133.968 1622.563 1134.373 1622.381 1134.425 1622.414 C1134.652 1622.545 1134.424 1622.911 1134.583 1623.071 C1134.642 1623.132 1135.026 1622.882 1135.097 1622.955 C1135.167 1623.028 1134.675 1623.382 1134.994 1623.355 C1135.237 1623.333 1136.358 1622.814 1136.549 1622.860 C1135.494 1623.463 1135.561 1623.530 1135.362 1623.830 C1135.323 1623.888 1134.939 1624.067 1134.902 1624.105 C1134.742 1624.265 1135.074 1624.141 1134.896 1624.308 C1134.853 1624.348 1134.492 1624.553 1134.437 1624.597 C1133.953 1624.983 1134.844 1624.662 1134.999 1624.606 C1135.588 1624.394 1135.142 1624.702 1135.394 1624.653 C1135.645 1624.603 1135.850 1624.349 1136.025 1624.358 C1136.386 1624.377 1136.451 1624.628 1136.565 1624.791 C1136.609 1624.858 1136.100 1625.083 1136.095 1625.099 C1136.053 1625.311 1136.647 1625.164 1135.732 1625.786 C1138.270 1624.480 1135.539 1626.008 1136.151 1625.930 C1136.201 1625.924 1137.386 1625.280 1137.524 1625.121 C1137.661 1624.962 1137.242 1625.076 1137.462 1624.839 C1137.514 1624.783 1138.548 1624.045 1138.606 1623.991 C1139.057 1623.573 1137.292 1624.548 1137.193 1624.596 C1136.111 1625.111 1137.216 1624.298 1137.277 1624.215 C1137.556 1623.832 1137.227 1623.827 1137.414 1623.533 C1137.535 1623.342 1138.679 1622.683 1138.602 1622.629 C1138.348 1622.452 1136.697 1623.274 1137.957 1622.259 C1138.226 1622.042 1139.510 1621.380 1138.422 1621.762 C1138.354 1621.787 1137.376 1622.167 1137.905 1621.768 C1137.972 1621.718 1138.338 1621.511 1138.362 1621.481 C1138.513 1621.285 1138.190 1621.394 1138.278 1621.224 C1138.366 1621.053 1138.512 1620.826 1138.329 1620.792 C1138.219 1620.771 1137.491 1621.076 1137.307 1621.141 C1136.778 1621.328 1137.516 1620.790 1136.903 1621.068 C1136.288 1621.346 1135.457 1621.953 1135.000 1622.027 C1135.948 1621.484 1136.918 1620.920 1137.870 1620.370 C1137.664 1620.084 1137.187 1619.958 1137.055 1619.629 C1137.040 1619.587 1137.573 1619.337 1137.570 1619.285 C1137.554 1619.067 1137.105 1619.124 1137.149 1618.864 C1137.186 1618.661 1137.642 1618.204 1137.697 1617.983 C1136.559 1618.510 1136.807 1618.088 1136.620 1617.989 C1136.555 1617.954 1136.266 1618.122 1136.149 1618.137 C1135.716 1618.190 1136.716 1617.714 1136.845 1617.588 C1137.394 1617.051 1135.209 1618.268 1135.148 1618.035 C1135.144 1618.023 1136.230 1617.236 1136.292 1617.177 C1136.699 1616.796 1135.878 1617.386 1135.752 1617.363 C1135.521 1617.321 1135.192 1617.387 1135.445 1617.041 C1135.520 1616.939 1136.183 1616.422 1135.574 1616.651 C1135.494 1616.682 1135.114 1616.905 1135.087 1616.908 C1134.618 1616.953 1135.821 1616.267 1136.175 1615.941 C1136.529 1615.615 1135.614 1615.938 1135.357 1616.044 C1134.692 1616.316 1135.126 1616.254 1135.067 1616.292 C1134.371 1616.752 1134.435 1616.574 1134.327 1616.527 C1133.139 1617.184 1133.145 1617.029 1134.221 1616.475 C1134.338 1616.415 1134.264 1616.541 1134.327 1616.527 C1135.446 1615.799 1135.523 1615.589 1134.361 1616.062 C1133.816 1616.285 1133.259 1616.681 1133.364 1616.361 C1133.411 1616.215 1134.244 1615.790 1134.421 1615.585 C1134.824 1615.117 1133.932 1615.311 1133.946 1615.057 C1133.951 1614.964 1134.434 1614.778 1134.452 1614.706 C1134.504 1614.515 1134.108 1614.596 1134.209 1614.375 C1134.219 1614.355 1134.701 1614.119 1134.685 1614.077 C1134.574 1613.755 1134.132 1613.670 1133.952 1613.371 C1133.865 1613.226 1133.974 1612.818 1133.836 1612.695 C1133.600 1612.480 1132.738 1612.540 1132.775 1612.221 C1132.797 1612.014 1133.282 1611.783 1133.564 1611.540 C1134.111 1611.070 1132.886 1611.479 1132.699 1611.547 C1132.693 1611.549 1132.655 1611.738 1132.377 1611.806 C1131.856 1612.049 1132.698 1611.550 1132.699 1611.547 C1132.578 1611.590 1132.329 1611.398 1132.390 1611.297 C1132.423 1611.242 1132.874 1611.007 1132.883 1610.984 C1133.087 1610.422 1133.008 1610.020 1132.607 1609.794 C1132.595 1609.793 1132.106 1610.082 1132.083 1610.076 C1131.751 1610.002 1132.284 1609.533 1132.550 1609.167 C1132.816 1608.800 1132.623 1608.738 1131.720 1609.121 C1131.757 1608.938 1131.281 1608.973 1130.996 1609.000 C1130.711 1609.026 1131.665 1608.468 1131.679 1608.448 C1132.129 1607.824 1131.487 1607.974 1131.237 1607.733 C1131.117 1607.619 1131.102 1607.266 1131.122 1607.057 C1131.140 1606.891 1130.875 1606.948 1130.957 1606.757 C1130.968 1606.732 1131.405 1606.504 1131.419 1606.490 C1131.862 1606.079 1130.848 1606.730 1130.647 1606.811 C1129.916 1607.105 1129.522 1607.254 1129.754 1606.917 C1129.807 1606.840 1131.255 1605.882 1131.307 1605.767 C1131.370 1605.619 1130.848 1605.957 1130.929 1605.794 C1130.935 1605.780 1131.269 1605.593 1131.224 1605.546 C1131.016 1605.328 1130.664 1605.159 1130.548 1604.876 C1130.531 1604.838 1131.086 1604.585 1131.069 1604.525 C1130.993 1604.244 1130.822 1603.986 1130.439 1603.888 C1130.343 1603.864 1129.994 1604.111 1129.877 1604.160 C1129.167 1604.458 1130.071 1603.800 1130.079 1603.771 C1130.296 1603.071 1129.231 1603.231 1129.396 1602.549 C1129.406 1602.511 1130.337 1601.738 1129.401 1602.158 C1129.339 1602.185 1128.383 1602.617 1128.963 1602.193 C1128.999 1602.166 1129.496 1601.953 1129.398 1601.890 C1129.300 1601.827 1129.531 1601.506 1128.947 1601.674 C1128.762 1601.727 1127.803 1602.147 1128.460 1601.622 C1128.507 1601.586 1130.040 1600.481 1128.875 1601.055 C1128.684 1601.150 1127.497 1601.836 1128.030 1601.351 C1128.133 1601.257 1128.427 1601.155 1128.554 1600.991 C1128.749 1600.739 1128.349 1600.778 1128.806 1600.345 C1128.887 1600.269 1129.642 1599.713 1128.983 1599.982 C1128.880 1600.024 1128.494 1600.273 1128.426 1600.257 C1128.101 1600.181 1128.251 1599.824 1127.862 1599.780 C1127.725 1599.764 1127.101 1600.165 1126.887 1600.188 C1126.673 1600.212 1126.422 1600.157 1126.673 1599.913 C1126.924 1599.670 1127.998 1599.173 1128.015 1599.011 C1128.087 1598.305 1127.202 1598.148 1126.830 1597.695 C1126.774 1597.628 1127.177 1597.482 1127.122 1597.368 C1126.920 1596.947 1126.868 1596.053 1125.889 1596.143 C1125.104 1596.215 1124.829 1596.839 1124.453 1596.768 C1124.273 1596.733 1125.403 1595.945 1125.426 1595.899 C1125.669 1595.438 1125.044 1595.567 1125.082 1595.255 C1125.089 1595.190 1125.598 1594.961 1125.600 1594.909 C1125.601 1594.882 1125.596 1594.859 1125.586 1594.839 L1121.646 1590.523 L1118.827 1592.168 C1118.700 1592.201 1118.624 1592.407 1118.495 1592.407 C1118.426 1592.406 1118.310 1591.997 1118.263 1592.047 C1118.148 1592.160 1118.080 1592.368 1118.066 1592.789 C1118.064 1592.828 1118.304 1593.306 1118.208 1593.356 C1118.054 1593.437 1117.967 1593.875 1117.657 1593.547 C1117.565 1593.448 1117.273 1592.523 1117.353 1593.200 C1117.370 1593.342 1117.750 1594.443 1117.309 1593.527 C1117.235 1593.374 1116.594 1592.152 1116.740 1593.024 C1116.778 1593.253 1116.985 1594.187 1116.873 1594.065 C1116.857 1594.045 1116.738 1593.536 1116.667 1593.505 C1116.420 1593.405 1116.230 1593.522 1115.979 1593.430 C1115.912 1593.404 1115.831 1592.864 1115.736 1592.842 C1115.475 1592.781 1115.240 1592.999 1115.074 1593.228 C1115.013 1593.313 1115.202 1593.722 1115.210 1593.770 C1115.353 1594.554 1114.979 1593.553 1114.930 1593.503 C1114.626 1593.208 1114.629 1593.732 1114.412 1593.661 C1114.353 1593.642 1114.235 1593.146 1114.212 1593.106 C1113.979 1592.714 1114.327 1593.563 1114.293 1593.679 C1114.199 1594.007 1113.987 1594.031 1113.786 1594.026 C1113.712 1594.023 1113.611 1593.436 1113.546 1593.440 C1113.162 1593.454 1112.812 1593.623 1112.563 1594.041 C1112.517 1594.121 1112.694 1594.542 1112.711 1594.645 C1112.835 1595.368 1112.402 1594.465 1112.342 1594.385 C1112.071 1594.019 1112.135 1594.420 1111.986 1594.388 C1111.257 1594.224 1110.574 1594.717 1110.040 1595.056 C1109.344 1595.496 1108.883 1596.093 1108.125 1596.213 C1108.078 1596.221 1107.943 1595.629 1107.900 1595.629 C1107.344 1595.650 1106.910 1596.034 1106.344 1596.028 C1106.298 1596.028 1106.188 1595.462 1106.108 1595.445 C1105.943 1595.405 1105.777 1595.490 1105.691 1595.708 C1105.649 1595.814 1105.888 1596.254 1105.843 1596.351 C1105.737 1596.577 1105.578 1596.670 1105.385 1596.634 C1105.303 1596.617 1105.234 1596.025 1105.141 1596.047 C1104.503 1596.185 1103.864 1596.280 1103.463 1597.200 C1103.436 1597.264 1103.754 1598.412 1103.594 1598.223 C1103.489 1597.909 1103.373 1597.538 1103.264 1597.202 C1102.304 1597.303 1101.533 1597.977 1100.647 1598.321 C1100.609 1598.336 1100.487 1597.713 1100.413 1597.737 C1099.988 1597.880 1099.521 1597.843 1099.270 1598.579 C1099.245 1598.651 1099.599 1599.704 1099.421 1599.584 C1099.389 1599.562 1099.152 1599.480 1099.030 1599.266 C1099.013 1599.234 1098.893 1598.728 1098.826 1598.733 C1098.442 1598.771 1098.099 1599.002 1097.833 1599.417 C1097.791 1599.485 1098.017 1599.992 1097.988 1600.045 C1097.782 1600.417 1097.337 1600.116 1097.206 1600.682 C1097.119 1601.063 1097.473 1601.952 1097.654 1602.879 C1097.679 1603.010 1097.569 1603.067 1097.726 1603.590 C1098.121 1604.906 1098.627 1606.324 1099.041 1607.729 C1099.131 1608.031 1098.873 1607.756 1099.193 1608.454 C1099.215 1608.501 1099.403 1608.707 1099.508 1608.945 C1099.581 1609.110 1099.712 1609.651 1099.820 1609.857 C1099.928 1610.063 1099.832 1609.605 1099.978 1609.841 C1100.125 1610.080 1100.285 1610.692 1100.438 1610.723 M1129.719 1609.116 C1129.204 1609.284 1130.888 1608.312 1130.541 1608.643 C1130.522 1608.660 1129.745 1609.109 1129.719 1609.116 M1135.911 1620.682 C1135.095 1620.981 1136.145 1620.276 1136.770 1620.037 C1137.395 1619.798 1136.159 1620.592 1135.911 1620.682 M1136.090 1622.270 C1135.420 1622.458 1137.807 1621.078 1137.409 1621.507 C1137.387 1621.531 1136.129 1622.259 1136.090 1622.270 M1098.197 1602.990 C1098.203 1603.015 1098.127 1603.065 1098.117 1603.041 C1097.889 1602.466 1098.041 1602.366 1098.197 1602.990 M1136.215 1623.874 C1135.865 1624.013 1136.166 1623.671 1136.602 1623.499 C1136.952 1623.360 1136.651 1623.702 1136.215 1623.874 M1125.129 1605.217 C1125.103 1605.230 1125.049 1605.188 1125.192 1605.108 C1125.653 1604.852 1125.567 1605.002 1125.129 1605.217 M1137.408 1626.047 C1137.137 1625.779 1135.046 1626.708 1135.466 1626.928 C1135.542 1626.968 1136.021 1626.435 1136.245 1626.414 C1136.654 1626.376 1135.464 1627.177 1136.216 1626.949 C1136.353 1626.907 1137.428 1626.060 1137.411 1626.045 C1137.410 1626.046 1137.409 1626.046 1137.408 1626.047 M1127.656 1610.212 C1127.633 1610.223 1127.569 1610.159 1127.590 1610.145 C1128.104 1609.800 1128.233 1609.928 1127.656 1610.212 M1122.276 1602.618 C1122.226 1602.640 1122.082 1602.490 1122.123 1602.459 C1122.950 1601.871 1123.243 1602.173 1122.276 1602.618 M1129.304 1616.012 C1128.810 1616.400 1128.802 1616.535 1129.518 1616.217 C1129.436 1616.155 1129.384 1616.076 1129.304 1616.012" fill="#ba9a9a" fill-rule="nonzero" opacity="1.0"/></svg>