<svg xmlns="http://www.w3.org/2000/svg" width="175.503" height="56.359" viewBox="380.686 1546.189 175.503 56.359"><path d="M554.842 1556.300 C554.093 1556.971 552.897 1557.509 551.929 1557.825 C551.626 1557.924 551.575 1557.549 551.358 1557.604 C550.933 1557.714 550.694 1558.064 550.259 1558.148 C550.114 1558.175 549.968 1557.622 549.823 1557.661 C549.029 1557.875 548.473 1558.389 547.738 1558.714 C544.112 1560.318 540.740 1562.197 537.246 1564.100 C536.095 1564.728 534.484 1565.156 533.455 1566.060 C533.335 1566.165 533.669 1566.521 533.665 1566.570 C533.588 1567.333 533.206 1566.431 532.877 1566.486 C531.574 1566.706 530.401 1567.391 529.505 1568.173 C529.125 1568.507 530.055 1569.046 529.345 1568.862 C529.296 1568.850 529.133 1568.351 528.988 1568.378 C528.660 1568.441 528.209 1568.832 527.984 1568.926 C527.548 1569.105 527.486 1569.150 527.111 1569.379 C526.596 1569.688 525.857 1569.854 525.373 1570.295 C525.271 1570.390 525.702 1570.734 525.564 1570.926 C525.425 1571.118 524.910 1571.390 524.679 1571.390 C524.448 1571.390 524.300 1570.999 524.221 1570.938 C523.558 1570.418 523.574 1571.705 523.515 1571.774 C522.428 1573.005 520.951 1573.194 519.700 1573.983 C519.339 1574.212 518.984 1574.471 518.631 1574.735 C518.044 1575.174 517.460 1575.618 516.871 1575.954 C515.737 1576.596 514.639 1576.909 513.563 1577.571 C513.449 1577.640 513.886 1578.098 513.747 1578.184 C512.266 1579.097 510.701 1579.854 508.972 1580.264 C508.799 1580.304 508.755 1579.723 508.568 1579.735 C507.422 1579.820 505.491 1579.570 505.915 1581.957 C505.225 1582.180 504.391 1582.456 503.615 1582.285 C503.116 1582.174 503.243 1581.476 502.883 1581.909 C502.802 1582.006 503.145 1582.416 503.006 1582.526 C502.420 1582.989 501.630 1583.146 501.073 1583.665 C500.960 1583.772 501.174 1584.182 501.167 1584.274 C501.102 1585.029 500.143 1584.222 499.998 1584.193 C498.885 1583.995 498.327 1584.468 497.490 1584.771 C497.296 1584.841 497.744 1585.332 497.564 1585.421 C496.628 1585.870 495.597 1586.189 494.552 1586.263 C494.319 1586.278 494.341 1585.713 494.221 1585.695 C493.697 1585.618 493.921 1586.593 493.420 1586.536 C493.315 1586.525 493.222 1586.080 493.190 1586.039 C492.684 1585.390 492.810 1586.508 492.751 1586.554 C492.009 1587.149 491.116 1586.228 490.354 1586.637 C490.262 1586.687 490.652 1587.163 490.383 1587.271 C488.593 1587.990 486.583 1588.394 484.634 1588.421 C484.332 1588.426 484.430 1587.958 484.398 1587.912 C483.905 1587.186 483.987 1588.305 483.904 1588.369 C483.238 1588.844 482.340 1588.104 482.137 1589.503 C478.910 1589.782 475.876 1591.107 472.551 1590.405 C472.509 1590.398 472.501 1589.848 472.418 1589.835 C471.420 1589.671 471.726 1590.481 471.226 1591.595 C471.098 1591.875 470.445 1590.699 470.392 1590.614 C470.192 1590.299 470.251 1589.475 470.191 1589.416 C469.697 1588.962 470.101 1591.612 469.508 1591.685 C469.489 1591.682 469.507 1591.184 469.452 1591.141 C469.280 1591.006 469.151 1591.219 468.981 1591.068 C468.591 1590.717 468.327 1589.438 467.889 1590.247 C467.833 1590.352 468.098 1591.853 467.560 1591.837 C467.346 1591.830 466.414 1591.947 466.143 1591.872 C465.873 1591.797 466.009 1591.293 465.988 1591.274 C465.231 1590.691 465.473 1590.400 465.045 1589.474 C464.621 1588.551 464.903 1590.813 464.780 1591.078 C464.657 1591.343 464.102 1590.850 463.964 1590.673 C463.825 1590.497 463.958 1590.175 463.839 1590.078 C463.055 1589.446 463.595 1591.230 463.374 1591.607 C462.849 1592.501 462.290 1590.842 461.757 1590.706 C461.612 1590.669 461.749 1591.047 461.624 1591.089 C461.126 1591.253 460.799 1590.741 460.246 1591.248 C460.157 1591.331 459.727 1592.365 459.399 1591.630 C459.352 1591.524 459.459 1591.099 459.241 1591.012 C458.915 1590.881 458.336 1590.805 457.995 1590.953 C457.742 1591.063 458.050 1591.750 457.723 1591.541 C457.578 1591.448 457.835 1591.037 457.564 1590.895 C457.296 1590.754 456.617 1590.781 456.359 1590.796 C456.101 1590.813 456.246 1591.338 456.225 1591.373 C456.100 1591.578 455.602 1591.833 455.557 1591.833 C453.323 1591.899 451.303 1590.957 449.140 1591.136 C448.969 1591.149 449.052 1591.709 449.026 1591.717 C448.431 1591.917 448.971 1590.469 448.598 1589.953 C448.590 1591.081 448.364 1590.864 447.949 1590.961 C447.749 1591.009 447.828 1591.451 447.807 1591.494 C447.470 1592.136 447.323 1591.268 447.284 1591.090 C447.136 1590.435 446.873 1591.178 446.773 1590.739 C446.674 1590.304 447.020 1589.695 446.633 1589.674 C446.493 1590.068 446.703 1591.140 446.393 1591.288 C445.217 1591.850 443.192 1590.823 442.311 1590.633 C441.426 1590.447 441.128 1590.483 440.625 1590.273 C439.721 1589.891 439.964 1590.710 439.328 1590.985 C438.690 1591.258 439.244 1589.393 439.218 1588.972 C439.194 1588.551 439.045 1588.959 438.976 1588.720 C438.908 1588.481 439.165 1588.234 438.941 1588.115 C438.718 1587.998 437.962 1588.628 437.811 1589.041 C437.493 1589.919 437.642 1590.915 437.055 1590.482 C437.022 1590.456 437.219 1589.975 437.087 1589.903 C436.039 1589.343 434.895 1589.120 433.860 1588.574 C433.718 1588.499 433.957 1587.971 433.876 1587.921 C433.036 1587.394 433.183 1588.387 432.474 1589.322 C432.860 1587.968 432.752 1587.074 432.071 1586.925 C431.661 1586.834 431.606 1587.448 431.248 1587.813 C431.140 1587.924 430.936 1587.450 430.822 1587.719 C430.447 1588.601 430.500 1589.693 429.871 1589.124 C429.844 1589.098 430.056 1588.617 429.954 1588.562 C429.300 1588.206 428.997 1589.147 428.207 1589.084 C427.586 1589.034 426.672 1588.190 426.026 1587.921 C426.433 1586.398 425.719 1586.586 425.181 1587.567 C424.758 1587.408 424.271 1587.338 423.892 1587.077 C423.762 1586.987 423.980 1586.574 423.975 1586.521 C423.908 1585.699 423.434 1586.664 423.329 1586.677 C422.205 1586.775 421.616 1585.762 420.427 1586.211 C420.385 1586.228 420.001 1587.255 419.984 1586.412 C419.985 1586.354 420.450 1585.979 420.012 1585.800 C419.572 1585.620 418.913 1584.789 418.132 1585.061 C417.944 1585.127 417.273 1585.838 417.195 1585.076 C417.185 1584.973 417.331 1584.691 417.330 1584.506 C417.325 1583.915 416.858 1584.924 416.947 1583.959 C417.036 1582.994 416.824 1582.173 415.991 1582.561 C415.966 1582.572 415.520 1583.343 415.330 1583.259 C415.129 1583.168 414.894 1582.989 414.665 1582.845 C414.551 1582.774 414.439 1582.711 414.331 1582.673 C414.176 1582.618 414.083 1583.165 414.053 1583.165 C412.911 1583.062 412.345 1582.331 411.311 1581.718 C411.122 1581.605 410.277 1582.082 410.090 1581.384 C409.883 1580.620 411.266 1578.282 410.050 1578.507 C409.560 1578.595 407.861 1581.582 407.759 1579.666 C406.210 1579.551 405.236 1578.224 403.617 1578.282 C403.545 1578.284 403.013 1579.096 402.870 1579.028 C402.658 1578.926 402.692 1578.467 402.546 1578.381 C401.935 1578.009 401.201 1578.138 400.588 1577.846 C400.355 1577.735 400.600 1577.338 400.322 1577.207 C400.044 1577.076 399.641 1577.568 399.354 1577.150 C399.139 1576.832 399.278 1575.569 398.939 1575.288 C398.497 1576.420 398.238 1576.297 397.650 1576.419 C397.537 1576.443 397.487 1576.875 397.425 1576.907 C397.173 1577.045 397.133 1576.656 396.883 1576.815 C396.822 1576.854 396.674 1577.241 396.616 1577.294 C396.119 1577.760 395.982 1576.712 395.959 1576.530 C395.869 1575.837 395.536 1576.289 395.386 1575.973 C395.237 1575.657 395.695 1575.505 395.472 1575.264 C395.011 1574.765 394.258 1574.554 393.687 1574.320 C393.459 1574.229 393.421 1574.806 393.384 1574.805 C392.859 1574.758 392.584 1574.026 391.933 1574.960 C392.604 1572.165 391.548 1575.111 391.068 1574.321 C391.031 1574.258 391.436 1572.969 391.712 1572.861 C391.987 1572.753 392.151 1573.265 392.545 1573.083 C392.638 1573.041 393.469 1572.002 393.549 1571.950 C394.173 1571.545 393.524 1573.455 393.507 1573.567 C393.336 1574.779 394.287 1573.681 394.445 1573.640 C395.167 1573.450 395.552 1573.897 396.137 1573.788 C396.519 1573.718 397.013 1572.493 397.244 1572.623 C398.011 1573.053 397.648 1574.885 398.977 1573.677 C399.261 1573.420 399.604 1572.007 399.795 1573.291 C399.807 1573.372 399.880 1574.508 400.364 1573.988 C400.424 1573.922 400.571 1573.528 400.625 1573.511 C400.986 1573.402 401.056 1573.786 401.418 1573.750 C401.780 1573.715 402.232 1573.629 402.531 1573.893 C402.712 1574.052 402.706 1574.887 402.740 1575.104 C402.830 1575.729 403.453 1574.994 403.394 1575.687 C403.336 1576.384 402.630 1577.210 402.943 1577.792 C403.344 1576.775 403.778 1575.739 404.191 1574.721 C405.199 1575.140 406.079 1575.847 407.121 1576.186 C407.250 1576.227 407.327 1575.629 407.471 1575.658 C408.078 1575.786 408.433 1576.367 409.087 1576.434 C409.594 1576.484 410.319 1576.091 410.856 1576.125 C410.711 1577.406 411.576 1577.277 412.055 1577.579 C412.224 1577.684 412.094 1577.993 412.185 1578.143 C412.533 1578.704 412.692 1577.583 412.887 1577.471 C413.722 1576.991 412.893 1579.351 413.592 1579.548 C413.629 1579.559 414.535 1578.475 414.625 1578.420 C415.199 1578.057 414.526 1578.878 414.731 1579.061 C415.089 1579.378 415.281 1579.767 415.861 1579.654 C415.890 1579.648 415.919 1579.641 415.950 1579.633 C416.137 1579.579 416.773 1578.929 416.834 1579.636 C416.843 1579.729 416.671 1580.135 416.692 1580.170 C417.091 1580.774 417.577 1579.476 418.042 1579.144 C418.506 1578.812 418.666 1579.880 418.675 1580.175 C418.698 1580.937 418.378 1580.394 418.341 1580.455 C417.903 1581.184 418.304 1581.172 418.551 1581.332 C418.148 1582.629 418.559 1582.683 418.811 1581.492 C418.837 1581.361 418.586 1581.409 418.551 1581.332 C419.223 1580.154 419.683 1580.131 419.750 1581.465 C419.782 1582.090 419.364 1582.669 420.104 1582.650 C420.439 1582.640 420.611 1581.713 420.952 1581.555 C421.726 1581.193 422.245 1582.268 422.911 1582.325 C423.151 1582.345 423.078 1581.788 423.247 1581.785 C423.694 1581.774 423.947 1582.248 424.413 1582.177 C424.455 1582.170 424.513 1581.629 424.642 1581.659 C425.620 1581.874 426.376 1582.436 427.391 1582.709 C427.882 1582.841 428.832 1582.773 429.328 1582.953 C430.187 1583.262 431.113 1584.269 431.920 1584.247 C432.444 1584.234 432.445 1583.686 432.731 1583.373 C433.281 1582.766 433.754 1584.152 433.818 1584.364 C433.820 1584.371 433.365 1584.410 433.541 1584.725 C433.564 1585.314 433.812 1584.365 433.818 1584.364 C433.857 1584.502 434.694 1584.786 434.884 1584.716 C434.987 1584.678 435.028 1584.170 435.080 1584.159 C436.309 1583.924 437.467 1583.989 438.595 1584.401 C438.614 1584.415 438.498 1584.971 438.544 1584.995 C439.185 1585.348 439.721 1584.723 440.331 1584.390 C440.943 1584.058 441.359 1584.250 441.571 1585.259 C442.008 1585.190 442.564 1585.689 442.886 1585.988 C443.209 1586.287 443.378 1585.193 443.410 1585.175 C444.439 1584.581 444.924 1585.264 445.913 1585.449 C446.382 1585.538 447.333 1585.451 447.853 1585.364 C448.264 1585.294 448.491 1585.568 448.874 1585.425 C448.926 1585.406 448.904 1584.911 448.921 1584.893 C449.368 1584.329 449.101 1585.519 449.175 1585.738 C449.444 1586.536 449.620 1586.962 450.176 1586.620 C450.306 1586.542 450.741 1584.828 450.966 1584.735 C451.260 1584.618 451.127 1585.234 451.437 1585.095 C451.464 1585.084 451.472 1584.701 451.658 1584.724 C452.524 1584.827 453.468 1585.071 454.374 1585.041 C454.498 1585.038 454.345 1584.429 454.523 1584.415 C455.357 1584.350 456.268 1584.369 457.085 1584.641 C457.287 1584.709 457.168 1585.137 457.214 1585.262 C457.496 1586.022 457.856 1584.904 457.917 1584.881 C459.391 1584.312 460.573 1585.269 462.071 1584.701 C462.154 1584.669 462.708 1583.441 463.060 1584.439 C463.083 1584.506 463.440 1585.528 463.637 1584.797 C463.649 1584.751 463.435 1584.228 463.743 1584.260 C464.053 1584.292 464.511 1583.895 464.980 1584.447 C465.127 1584.621 465.538 1585.631 465.859 1584.766 C465.882 1584.706 466.304 1582.778 466.650 1584.045 C466.707 1584.253 466.811 1585.622 467.213 1584.872 C467.289 1584.727 467.093 1584.441 467.309 1584.225 C467.640 1583.893 468.164 1584.204 468.536 1583.544 C468.602 1583.427 468.815 1582.464 469.166 1583.131 C469.221 1583.236 469.200 1583.700 469.346 1583.733 C470.044 1583.892 470.698 1583.494 471.418 1583.708 C471.673 1583.783 471.659 1584.534 471.939 1584.693 C472.220 1584.851 472.758 1584.961 472.968 1584.585 C473.178 1584.209 472.706 1583.090 473.079 1582.934 C474.696 1582.256 476.480 1582.628 478.182 1582.373 C478.434 1582.335 478.141 1581.966 478.504 1581.880 C479.848 1581.566 482.049 1580.631 483.431 1581.190 C484.546 1581.639 483.510 1582.479 484.302 1582.571 C484.686 1582.613 484.700 1581.188 484.770 1581.124 C485.459 1580.479 486.181 1580.904 486.854 1580.511 C486.992 1580.430 486.688 1579.940 486.806 1579.877 C487.210 1579.657 487.734 1579.757 488.132 1579.586 C488.310 1579.508 488.150 1579.113 488.328 1579.092 C488.754 1579.035 489.164 1579.091 489.682 1579.341 C489.729 1579.363 489.649 1579.945 489.956 1579.865 C490.452 1579.736 491.184 1579.905 491.610 1579.329 C491.736 1579.156 491.424 1578.238 491.998 1578.747 C492.118 1578.854 492.410 1579.986 492.488 1578.891 C492.505 1578.708 492.731 1577.186 493.366 1577.884 C493.533 1578.068 494.091 1578.879 494.238 1578.665 C494.256 1578.632 493.967 1578.184 494.113 1578.075 C494.627 1577.702 495.245 1577.525 495.771 1577.144 C495.910 1577.041 495.482 1576.630 495.695 1576.493 C496.281 1576.117 497.121 1575.924 497.803 1575.822 C498.055 1575.785 498.070 1576.263 498.106 1576.301 C498.680 1576.918 498.424 1575.867 498.487 1575.772 C498.890 1575.197 499.505 1575.476 499.957 1575.132 C500.082 1575.038 499.777 1574.616 499.787 1574.563 C499.892 1574.031 500.050 1574.961 500.272 1574.972 C500.896 1575.007 501.446 1574.712 501.929 1574.416 C502.106 1574.306 501.647 1573.869 501.808 1573.777 C502.757 1573.223 503.796 1572.782 504.898 1572.592 C505.106 1572.557 505.197 1573.019 505.282 1573.093 C505.870 1573.610 505.802 1572.532 505.844 1572.404 C506.041 1571.818 506.378 1572.096 506.691 1571.847 C508.213 1570.630 510.391 1569.709 512.029 1568.918 C512.831 1568.531 513.584 1568.198 514.309 1567.862 C515.559 1567.275 516.735 1566.702 517.944 1565.859 C518.067 1565.773 517.617 1565.342 517.720 1565.262 C519.057 1564.249 520.575 1563.573 521.900 1562.534 C522.009 1562.450 521.536 1562.070 521.701 1561.918 C522.038 1561.604 522.540 1561.325 523.024 1561.236 C523.260 1561.192 523.268 1561.768 523.500 1561.715 C524.041 1561.593 524.537 1561.329 524.943 1560.965 C525.115 1560.809 524.511 1560.497 524.759 1560.333 C526.441 1559.206 528.070 1558.063 530.205 1557.616 C530.351 1557.586 531.089 1558.529 531.220 1558.177 C531.063 1557.885 530.855 1557.557 530.675 1557.252 C533.068 1555.523 535.756 1554.320 538.291 1552.801 C538.397 1552.737 537.879 1552.318 538.084 1552.191 C539.271 1551.456 540.325 1550.586 541.867 1550.357 C542.020 1550.334 542.549 1551.312 542.813 1550.948 C542.859 1550.883 543.313 1550.423 543.322 1550.132 C543.321 1550.090 542.948 1549.712 543.112 1549.591 C544.066 1548.898 545.174 1548.341 546.337 1547.984 C546.525 1547.927 546.648 1548.501 546.785 1548.465 C547.752 1548.203 548.411 1547.293 549.453 1547.229 C550.151 1547.189 550.467 1548.117 551.243 1548.739 C551.352 1548.826 551.685 1548.642 551.992 1549.094 C552.766 1550.230 553.412 1551.602 554.255 1552.801 C554.436 1553.059 554.686 1552.501 554.837 1553.307 C554.846 1553.361 554.669 1553.771 554.730 1554.039 C554.771 1554.224 555.164 1554.633 555.176 1554.896 C555.189 1555.158 554.821 1554.839 554.783 1555.180 C554.747 1555.525 555.163 1556.010 554.842 1556.300 M444.355 1587.317 C444.634 1587.877 444.865 1585.947 444.468 1586.375 C444.449 1586.398 444.340 1587.290 444.355 1587.317 M405.559 1577.218 C405.671 1578.176 406.396 1577.101 406.337 1576.372 C406.278 1575.643 405.524 1576.928 405.559 1577.218 M401.056 1576.198 C401.302 1577.012 402.346 1574.460 401.633 1574.788 C401.592 1574.806 401.042 1576.151 401.056 1576.198 M550.107 1549.769 C550.124 1549.789 550.369 1549.665 550.361 1549.639 C550.155 1549.039 549.666 1549.288 550.107 1549.769 M396.567 1575.243 C396.587 1575.649 397.172 1575.408 397.148 1574.904 C397.128 1574.498 396.543 1574.738 396.567 1575.243 M461.691 1589.759 C461.698 1589.787 461.894 1589.803 461.881 1589.639 C461.838 1589.114 461.577 1589.277 461.691 1589.759 M389.333 1572.564 C390.364 1573.061 390.211 1575.436 389.139 1574.760 C388.945 1574.637 389.848 1574.250 389.652 1573.957 C389.293 1573.423 388.466 1574.640 388.235 1573.735 C388.194 1573.570 389.276 1572.531 389.336 1572.562 C389.335 1572.562 389.334 1572.563 389.333 1572.564 M444.321 1589.660 C444.325 1589.686 444.593 1589.736 444.602 1589.711 C444.804 1589.110 444.269 1589.010 444.321 1589.660 M473.196 1589.771 C473.219 1589.823 473.853 1589.775 473.865 1589.722 C474.030 1588.674 472.759 1588.766 473.196 1589.771 M426.026 1587.878 C425.581 1588.404 425.212 1588.383 425.182 1587.568 C425.459 1587.684 425.746 1587.766 426.026 1587.878" fill="#ba9a9a" fill-rule="nonzero" opacity="1.0"/><path d="M411.188 1565.514 C410.967 1565.799 410.512 1565.805 410.121 1565.709 C409.998 1565.679 409.903 1565.345 409.812 1565.310 C409.635 1565.243 409.590 1565.448 409.404 1565.357 C409.341 1565.326 409.167 1564.806 409.106 1564.784 C408.777 1564.668 408.616 1564.892 408.335 1564.892 C406.951 1564.887 405.738 1565.209 404.473 1565.506 C404.056 1565.605 403.386 1565.363 403.079 1565.739 C403.043 1565.783 403.267 1566.208 403.275 1566.248 C403.385 1566.861 403.034 1565.958 402.891 1565.882 C402.325 1565.580 401.909 1565.719 401.641 1566.043 C401.527 1566.182 402.065 1566.983 401.698 1566.562 C401.673 1566.534 401.501 1566.054 401.439 1566.022 C401.298 1565.952 401.162 1566.113 401.075 1566.108 C400.906 1566.096 400.886 1566.111 400.755 1566.163 C400.574 1566.231 400.261 1566.095 400.120 1566.285 C400.090 1566.327 400.358 1566.778 400.330 1566.888 C400.302 1566.998 400.114 1567.034 400.006 1566.948 C399.898 1566.862 399.754 1566.477 399.705 1566.396 C399.296 1565.710 399.550 1566.800 399.536 1566.837 C399.265 1567.466 398.612 1567.074 398.180 1567.271 C397.852 1567.421 397.585 1567.768 397.260 1567.883 C396.873 1568.019 396.441 1567.903 396.099 1568.111 C396.062 1568.132 396.359 1568.671 396.315 1568.698 C395.848 1568.986 395.328 1569.147 394.665 1568.992 C394.598 1568.976 394.440 1568.457 394.361 1568.411 C393.876 1568.144 392.960 1567.391 393.743 1569.609 C393.500 1569.618 393.212 1569.644 392.834 1569.296 C392.591 1569.072 392.465 1568.486 392.423 1568.779 C392.413 1568.845 392.666 1569.294 392.635 1569.357 C392.506 1569.622 392.211 1569.571 392.115 1569.906 C392.096 1569.975 392.296 1570.389 392.319 1570.470 C392.495 1571.127 391.874 1570.189 391.805 1570.132 C391.284 1569.708 391.181 1570.013 390.919 1570.115 C390.859 1570.138 391.183 1570.671 391.133 1570.713 C390.874 1570.927 390.546 1571.017 390.143 1570.897 C390.053 1570.869 389.896 1570.362 389.842 1570.324 C389.606 1570.163 389.984 1571.083 389.766 1570.946 C389.720 1570.918 389.551 1570.500 389.525 1570.457 C389.128 1569.784 389.512 1570.819 389.502 1570.850 C389.383 1571.268 388.748 1570.293 388.569 1570.552 C388.548 1570.584 388.849 1571.075 388.775 1571.133 C388.683 1571.208 388.584 1571.272 388.480 1571.327 L389.847 1568.624 C389.982 1569.105 389.921 1569.642 389.661 1570.194 C389.612 1570.299 389.179 1570.324 389.129 1570.341 C388.342 1570.608 389.436 1570.436 389.483 1570.457 C389.827 1570.628 388.967 1571.042 390.289 1570.925 C390.055 1572.013 390.990 1572.845 390.048 1574.076 C390.037 1574.092 389.500 1574.184 389.481 1574.214 C389.246 1574.578 390.061 1574.343 391.116 1574.325 C391.381 1574.320 390.192 1574.735 390.105 1574.768 C389.786 1574.888 388.983 1575.007 388.922 1575.037 C388.449 1575.281 391.064 1574.696 391.105 1574.880 C391.102 1574.886 390.614 1574.966 390.570 1574.991 C390.429 1575.072 390.631 1575.078 390.475 1575.160 C390.114 1575.350 388.849 1575.662 389.625 1575.666 C389.726 1575.666 391.205 1575.316 391.170 1575.495 C391.155 1575.566 391.243 1575.850 391.164 1575.952 C391.085 1576.053 390.594 1576.101 390.575 1576.111 C389.988 1576.465 389.708 1576.439 388.794 1576.749 C387.884 1577.059 390.105 1576.550 390.363 1576.542 C390.620 1576.533 390.132 1576.805 389.959 1576.884 C389.786 1576.962 389.471 1576.978 389.376 1577.035 C388.754 1577.411 390.503 1576.899 390.873 1576.900 C391.749 1576.900 390.127 1577.395 390.000 1577.594 C389.966 1577.648 390.335 1577.531 390.378 1577.563 C390.547 1577.692 390.051 1577.897 390.562 1577.974 C390.646 1577.987 391.670 1577.918 390.961 1578.168 C390.859 1578.204 390.439 1578.255 390.361 1578.342 C390.244 1578.472 390.193 1578.671 390.354 1578.749 C390.473 1578.807 391.132 1578.570 390.942 1578.715 C390.858 1578.780 390.443 1578.783 390.318 1578.897 C390.192 1579.011 390.255 1579.220 390.286 1579.297 C390.317 1579.375 390.822 1579.220 390.858 1579.220 C391.065 1579.216 391.347 1579.318 391.349 1579.332 C391.560 1580.008 390.829 1580.830 391.260 1581.441 C391.294 1581.489 391.829 1581.337 391.839 1581.343 C392.105 1581.475 390.632 1581.642 390.176 1581.872 C391.274 1581.617 391.090 1581.734 391.238 1581.836 C391.310 1581.884 391.730 1581.759 391.774 1581.755 C392.442 1581.707 391.619 1581.950 391.451 1582.003 C390.835 1582.198 391.592 1582.104 391.180 1582.236 C390.772 1582.366 390.132 1582.405 390.166 1582.525 C390.568 1582.475 391.579 1582.163 391.765 1582.220 C392.472 1582.433 391.804 1583.259 391.780 1583.557 C391.756 1583.856 391.848 1583.931 391.741 1584.125 C391.547 1584.475 392.288 1584.203 392.677 1584.311 C393.066 1584.419 391.167 1584.734 390.768 1584.847 C390.370 1584.959 390.792 1584.899 390.576 1584.979 C390.361 1585.058 390.071 1585.048 390.004 1585.141 C389.937 1585.235 390.700 1585.287 391.129 1585.223 C392.036 1585.088 392.956 1584.793 392.669 1585.064 C392.652 1585.079 392.149 1585.148 392.109 1585.203 C391.803 1585.635 391.858 1586.003 391.596 1586.425 C391.560 1586.483 391.000 1586.558 390.973 1586.594 C390.683 1586.961 391.589 1586.657 392.653 1586.596 C391.274 1586.854 390.454 1587.123 390.494 1587.346 C390.517 1587.480 391.111 1587.328 391.551 1587.324 C391.684 1587.322 391.293 1587.504 391.578 1587.461 C392.511 1587.319 393.523 1587.010 393.161 1587.326 C393.144 1587.340 392.633 1587.416 392.610 1587.457 C392.458 1587.724 393.427 1587.544 393.595 1587.760 C393.727 1587.930 393.213 1588.392 393.163 1588.629 C391.621 1588.955 392.018 1589.083 393.098 1588.937 C393.085 1589.086 393.177 1589.225 393.059 1589.391 C393.019 1589.449 392.566 1589.514 392.519 1589.530 C391.782 1589.782 392.829 1589.621 392.876 1589.643 C393.341 1589.885 392.614 1590.320 393.447 1590.468 C393.477 1590.473 394.552 1590.261 393.788 1590.513 C393.735 1590.530 393.226 1590.531 393.220 1590.686 C393.213 1590.841 392.699 1591.241 393.239 1591.339 C393.369 1591.363 394.265 1591.301 393.607 1591.547 C393.518 1591.580 393.208 1591.631 393.041 1591.687 C392.510 1591.866 393.599 1591.668 392.696 1591.939 C391.792 1592.209 391.136 1592.510 391.815 1592.579 C391.835 1592.582 392.703 1592.446 392.703 1592.514 C392.703 1592.622 392.556 1592.807 392.585 1592.913 C392.599 1592.964 393.124 1592.817 393.136 1592.824 C393.509 1593.107 393.087 1593.456 392.961 1593.872 C392.937 1593.949 393.705 1593.989 393.159 1594.244 C392.562 1594.524 389.915 1594.936 390.609 1595.136 C390.887 1595.216 394.241 1594.674 392.574 1595.285 C393.101 1595.661 392.314 1596.283 393.023 1596.622 C393.054 1596.638 393.995 1596.506 393.993 1596.558 C393.988 1596.636 393.564 1596.770 393.547 1596.828 C393.464 1597.077 393.877 1597.199 393.865 1597.424 C393.862 1597.509 393.408 1597.577 393.404 1597.679 C393.400 1597.780 394.003 1597.718 393.746 1597.909 C393.551 1598.054 392.368 1598.411 392.255 1598.572 C393.444 1598.322 393.439 1598.417 393.787 1598.509 C393.854 1598.527 394.261 1598.405 394.314 1598.409 C394.540 1598.422 394.209 1598.551 394.453 1598.557 C394.511 1598.558 394.917 1598.472 394.988 1598.469 C395.606 1598.435 394.727 1598.787 394.574 1598.848 C393.992 1599.080 394.530 1599.015 394.310 1599.145 C394.089 1599.275 393.767 1599.221 393.642 1599.344 C393.385 1599.599 393.503 1599.829 393.526 1600.027 C393.538 1600.105 394.068 1599.936 394.082 1599.945 C394.254 1600.075 393.712 1600.360 394.810 1600.217 C392.045 1600.927 395.101 1600.255 394.592 1600.604 C394.551 1600.631 393.237 1600.937 393.028 1600.910 C392.820 1600.882 393.210 1600.689 392.887 1600.658 C392.812 1600.651 391.548 1600.786 391.469 1600.785 C390.854 1600.771 392.821 1600.328 392.928 1600.298 C394.078 1599.964 392.712 1600.091 392.611 1600.069 C392.149 1599.968 392.391 1599.746 392.056 1599.650 C391.839 1599.587 390.546 1599.854 390.567 1599.764 C390.639 1599.463 392.420 1598.980 390.803 1599.058 C390.458 1599.075 389.059 1599.432 390.126 1598.996 C390.193 1598.969 391.177 1598.604 390.516 1598.657 C390.433 1598.664 390.022 1598.753 389.984 1598.746 C389.741 1598.700 390.055 1598.567 389.876 1598.498 C389.697 1598.429 389.437 1598.356 389.551 1598.208 C389.619 1598.120 390.366 1597.865 390.546 1597.791 C391.066 1597.579 390.158 1597.667 390.800 1597.468 C391.445 1597.267 392.469 1597.169 392.860 1596.921 C391.790 1597.145 390.691 1597.367 389.614 1597.589 C389.578 1597.238 389.851 1596.827 389.730 1596.493 C389.714 1596.452 389.149 1596.619 389.117 1596.578 C388.985 1596.405 389.358 1596.149 389.152 1595.984 C388.990 1595.857 388.346 1595.818 388.158 1595.689 C389.359 1595.327 388.893 1595.177 388.967 1594.978 C388.992 1594.909 389.320 1594.843 389.417 1594.776 C389.776 1594.528 388.712 1594.837 388.532 1594.828 C387.765 1594.791 390.207 1594.250 390.098 1594.035 C390.093 1594.024 388.758 1594.157 388.672 1594.154 C388.115 1594.139 389.121 1594.035 389.200 1593.934 C389.345 1593.749 389.634 1593.580 389.215 1593.489 C389.091 1593.463 388.253 1593.517 388.860 1593.284 C388.940 1593.253 389.372 1593.168 389.395 1593.152 C389.776 1592.874 388.421 1593.160 387.939 1593.151 C387.458 1593.143 388.357 1592.777 388.619 1592.685 C389.297 1592.448 388.931 1592.689 389.001 1592.679 C389.826 1592.560 389.660 1592.470 389.709 1592.363 C391.034 1592.064 390.927 1591.953 389.755 1592.253 C389.627 1592.286 389.766 1592.331 389.709 1592.363 C388.390 1592.561 388.192 1592.455 389.376 1592.038 C389.931 1591.842 390.611 1591.768 390.319 1591.598 C390.188 1591.521 389.282 1591.756 389.014 1591.720 C388.402 1591.639 389.198 1591.191 389.018 1591.010 C388.953 1590.944 388.469 1591.126 388.407 1591.085 C388.241 1590.976 388.591 1590.773 388.369 1590.676 C388.348 1590.667 387.831 1590.810 387.815 1590.769 C387.684 1590.454 387.958 1590.098 387.894 1589.754 C387.863 1589.588 387.510 1589.355 387.532 1589.172 C387.566 1588.854 388.249 1588.326 388.010 1588.113 C387.856 1587.973 387.340 1588.122 386.968 1588.128 C386.247 1588.140 387.434 1587.632 387.619 1587.558 C387.625 1587.556 387.779 1587.672 388.032 1587.538 C388.582 1587.374 387.622 1587.559 387.619 1587.558 C387.738 1587.510 387.796 1587.201 387.684 1587.166 C387.623 1587.147 387.130 1587.271 387.107 1587.259 C386.582 1586.975 386.374 1586.622 386.523 1586.187 C386.532 1586.178 387.089 1586.069 387.103 1586.050 C387.302 1585.774 386.592 1585.777 386.149 1585.680 C385.707 1585.583 385.810 1585.408 386.740 1585.095 C386.590 1584.982 386.969 1584.692 387.200 1584.523 C387.431 1584.354 386.347 1584.570 386.323 1584.564 C385.572 1584.397 386.152 1584.083 386.178 1583.736 C386.192 1583.571 385.970 1583.297 385.815 1583.155 C385.692 1583.043 385.928 1582.908 385.740 1582.821 C385.715 1582.809 385.237 1582.929 385.217 1582.928 C384.612 1582.915 385.803 1582.728 386.007 1582.655 C386.749 1582.389 387.142 1582.239 386.745 1582.141 C386.654 1582.119 384.936 1582.365 384.821 1582.313 C384.675 1582.244 385.289 1582.150 385.121 1582.082 C385.107 1582.076 384.733 1582.158 384.736 1582.093 C384.746 1581.791 384.897 1581.432 384.796 1581.142 C384.783 1581.103 384.201 1581.282 384.173 1581.227 C384.043 1580.966 384.000 1580.660 384.221 1580.332 C384.277 1580.250 384.702 1580.203 384.822 1580.162 C385.551 1579.913 384.438 1580.021 384.413 1580.005 C383.786 1579.626 384.687 1579.039 384.112 1578.638 C384.079 1578.617 382.870 1578.657 383.848 1578.349 C383.913 1578.328 384.914 1578.016 384.198 1578.084 C384.154 1578.089 383.640 1578.259 383.672 1578.147 C383.704 1578.035 383.318 1577.948 383.866 1577.685 C384.039 1577.603 385.035 1577.280 384.195 1577.324 C384.137 1577.327 382.257 1577.520 383.508 1577.176 C383.714 1577.119 385.058 1576.844 384.337 1576.835 C384.197 1576.834 383.910 1576.952 383.706 1576.914 C383.392 1576.855 383.717 1576.619 383.088 1576.599 C382.977 1576.596 382.043 1576.681 382.715 1576.445 C382.820 1576.408 383.274 1576.338 383.314 1576.281 C383.506 1576.008 383.157 1575.840 383.419 1575.549 C383.510 1575.446 384.243 1575.332 384.419 1575.207 C384.595 1575.082 384.746 1574.875 384.396 1574.859 C384.047 1574.844 382.914 1575.186 382.794 1575.076 C382.271 1574.596 382.828 1573.891 382.805 1573.305 C382.802 1573.218 382.404 1573.376 382.370 1573.254 C382.242 1572.806 381.686 1572.103 382.478 1571.520 C383.113 1571.053 383.733 1571.336 383.967 1571.033 C384.078 1570.887 382.710 1571.049 382.662 1571.030 C382.174 1570.847 382.727 1570.528 382.491 1570.319 C382.443 1570.276 381.910 1570.443 381.874 1570.405 C381.856 1570.386 381.844 1570.365 381.838 1570.343 L381.917 1564.501 L385.117 1563.858 C385.233 1563.798 385.427 1563.902 385.524 1563.816 C385.575 1563.769 385.390 1563.387 385.458 1563.392 C385.619 1563.401 385.808 1563.511 386.099 1563.816 C386.125 1563.844 386.264 1564.361 386.368 1564.335 C386.538 1564.292 386.893 1564.563 386.907 1564.112 C386.910 1563.977 386.514 1563.091 386.904 1563.650 C386.986 1563.767 387.433 1564.843 387.154 1563.865 C387.108 1563.702 386.775 1562.363 387.245 1563.111 C387.369 1563.308 387.835 1564.144 387.837 1563.978 C387.836 1563.953 387.587 1563.493 387.620 1563.423 C387.738 1563.183 387.957 1563.145 388.083 1562.909 C388.117 1562.846 387.818 1562.388 387.875 1562.309 C388.030 1562.089 388.350 1562.096 388.626 1562.157 C388.728 1562.180 388.859 1562.611 388.885 1562.653 C389.298 1563.334 388.913 1562.337 388.917 1562.267 C388.948 1561.844 389.294 1562.239 389.409 1562.041 C389.441 1561.988 389.199 1561.539 389.189 1561.493 C389.104 1561.046 389.407 1561.911 389.510 1561.976 C389.798 1562.159 389.972 1562.035 390.119 1561.898 C390.172 1561.847 389.859 1561.341 389.909 1561.301 C390.205 1561.057 390.580 1560.950 391.043 1561.098 C391.131 1561.127 391.279 1561.559 391.334 1561.647 C391.721 1562.269 391.445 1561.307 391.437 1561.208 C391.397 1560.753 391.615 1561.096 391.705 1560.973 C392.141 1560.367 392.979 1560.281 393.604 1560.181 C394.416 1560.047 395.157 1560.187 395.803 1559.773 C395.844 1559.747 395.552 1559.216 395.584 1559.187 C396.014 1558.833 396.593 1558.832 397.012 1558.452 C397.046 1558.422 396.753 1557.925 396.801 1557.859 C396.898 1557.720 397.078 1557.673 397.288 1557.779 C397.389 1557.830 397.503 1558.318 397.601 1558.360 C397.830 1558.459 398.011 1558.422 398.131 1558.268 C398.181 1558.201 397.840 1557.712 397.924 1557.667 C398.493 1557.347 399.034 1556.992 399.944 1557.415 C400.007 1557.444 400.532 1558.514 400.525 1558.266 C400.396 1557.962 400.236 1557.607 400.094 1557.284 C400.879 1556.721 401.903 1556.713 402.794 1556.382 C402.832 1556.368 402.510 1555.821 402.581 1555.790 C402.994 1555.615 403.319 1555.276 403.995 1555.660 C404.061 1555.697 404.496 1556.719 404.549 1556.511 C404.558 1556.474 404.682 1556.255 404.630 1556.014 C404.622 1555.978 404.375 1555.521 404.428 1555.480 C404.741 1555.253 405.151 1555.198 405.625 1555.332 C405.702 1555.354 405.870 1555.884 405.927 1555.905 C406.328 1556.045 406.461 1555.525 406.935 1555.861 C407.253 1556.088 407.578 1556.988 408.059 1557.801 C408.127 1557.916 408.247 1557.885 408.477 1558.381 C409.056 1559.627 409.620 1561.023 410.243 1562.348 C410.377 1562.633 410.387 1562.256 410.612 1562.991 C410.626 1563.041 410.622 1563.320 410.702 1563.568 C410.757 1563.739 411.018 1564.230 411.074 1564.456 C411.131 1564.682 410.898 1564.276 410.946 1564.549 C410.995 1564.825 411.282 1565.389 411.188 1565.514 M388.232 1583.762 C388.728 1583.545 386.824 1583.937 387.303 1583.954 C387.329 1583.955 388.208 1583.773 388.232 1583.762 M391.286 1596.521 C392.094 1596.202 390.841 1596.372 390.215 1596.609 C389.589 1596.846 391.041 1596.618 391.286 1596.521 M392.206 1597.826 C392.832 1597.522 390.132 1598.076 390.714 1598.132 C390.747 1598.135 392.170 1597.844 392.206 1597.826 M407.726 1558.244 C407.738 1558.267 407.829 1558.254 407.820 1558.230 C407.609 1557.648 407.429 1557.674 407.726 1558.244 M393.179 1599.109 C393.532 1598.980 393.080 1598.925 392.640 1599.085 C392.286 1599.214 392.739 1599.269 393.179 1599.109 M389.074 1577.798 C389.102 1577.790 389.114 1577.723 388.954 1577.759 C388.439 1577.874 388.603 1577.928 389.074 1577.798 M393.730 1601.525 C393.755 1601.146 395.935 1600.450 395.767 1600.894 C395.737 1600.975 395.024 1600.895 394.843 1601.028 C394.512 1601.271 395.934 1601.079 395.221 1601.408 C395.090 1601.468 393.724 1601.548 393.727 1601.525 C393.728 1601.525 393.729 1601.525 393.730 1601.525 M390.502 1583.211 C390.527 1583.203 390.532 1583.113 390.507 1583.117 C389.894 1583.200 389.882 1583.382 390.502 1583.211 M389.479 1573.960 C389.532 1573.944 389.539 1573.736 389.489 1573.740 C388.480 1573.849 388.461 1574.271 389.479 1573.960 M393.123 1588.641 C393.750 1588.603 393.845 1588.699 393.099 1588.937 C393.120 1588.836 393.106 1588.741 393.123 1588.641" fill="#ba9a9a" fill-rule="nonzero" opacity="1.0"/></svg>